<?xml version="1.0" encoding="UTF-8" standalone="no"?><!DOCTYPE svg PUBLIC "-//W3C//DTD SVG 1.1//EN" "http://www.w3.org/Graphics/SVG/1.1/DTD/svg11.dtd"><svg width="100%" height="100%" viewBox="0 0 35 29" version="1.1" xmlns="http://www.w3.org/2000/svg" xmlns:xlink="http://www.w3.org/1999/xlink" xml:space="preserve" xmlns:serif="http://www.serif.com/" style="fill-rule:evenodd;clip-rule:evenodd;stroke-linejoin:round;stroke-miterlimit:2;"><g id="Icon-Twitter"><path id="Fill-122" d="M34.745,3.393c-1.281,0.574 -2.65,0.962 -4.093,1.141c1.472,-0.895 2.605,-2.312 3.136,-3.997c-1.378,0.828 -2.901,1.432 -4.528,1.753c-1.304,-1.411 -3.159,-2.29 -5.205,-2.29c-3.94,-0 -7.128,3.236 -7.128,7.225c0,0.567 0.059,1.12 0.184,1.649c-5.927,-0.298 -11.184,-3.177 -14.696,-7.554c-0.611,1.066 -0.965,2.312 -0.965,3.631c0,2.506 1.267,4.72 3.181,6.018c-1.178,-0.029 -2.282,-0.358 -3.24,-0.903l0,0.091c0,3.504 2.46,6.42 5.721,7.083c-0.596,0.164 -1.229,0.253 -1.877,0.253c-0.457,0 -0.906,-0.044 -1.34,-0.133c0.906,2.87 3.542,4.958 6.664,5.018c-2.438,1.938 -5.516,3.095 -8.858,3.095c-0.575,-0 -1.141,-0.037 -1.701,-0.104c3.144,2.072 6.892,3.265 10.911,3.265c13.128,0 20.3,-11.013 20.3,-20.566c0,-0.313 -0.008,-0.627 -0.022,-0.932c1.391,-1.021 2.599,-2.288 3.556,-3.743" style="fill:#3b313c;"/></g></svg>